<svg width="216" height="64" viewBox="0 0 216 64" fill="none" xmlns="http://www.w3.org/2000/svg">
<path d="M0.16 45.36C0.266667 45.1467 0.373333 44.96 0.48 44.8C0.586667 44.5867 0.693334 44.3733 0.8 44.16C1.38667 43.2 1.76 42.2933 1.92 41.44C2.08 40.5867 2.37333 40.1333 2.8 40.08C3.28 40.0267 3.68 39.8667 4 39.6C4.37333 39.3333 4.61333 39.04 4.72 38.72C4.88 38.3467 4.88 38 4.72 37.68C4.61333 37.3067 4.29333 37.0133 3.76 36.8L10.56 28.32C11.0933 28.5867 11.5733 28.4267 12 27.84C12.48 27.2 12.8533 26.4533 13.12 25.6C13.44 24.6933 13.6533 23.84 13.76 23.04C13.92 22.1867 13.9733 21.68 13.92 21.52C14.24 21.0933 14.6933 20.56 15.28 19.92C15.8667 19.2267 16.5333 18.0267 17.28 16.32C18.08 14.6133 18.6667 13.28 19.04 12.32C19.4667 11.36 19.7333 10.7733 19.84 10.56C20.0533 10.08 20.24 9.70666 20.4 9.44C20.56 9.17333 20.6667 9.01333 20.72 8.96L19.52 7.36C18.9333 7.41333 18.5067 7.62666 18.24 8C17.9733 8.37333 17.4667 8.61333 16.72 8.72C16.3467 8.77333 16.0267 8.82667 15.76 8.88C15.4933 8.88 15.2533 8.88 15.04 8.88C14.88 8.93333 14.6933 8.96 14.48 8.96C14.1067 8.96 13.3867 8.69333 12.32 8.16C11.3067 7.62667 10.1867 7.2 8.96 6.88C9.01333 6.98666 8.96 7.09333 8.8 7.2C8.69333 7.30667 8.56 7.41333 8.4 7.52C8.29333 7.62666 8.18667 7.73333 8.08 7.84C7.97333 7.94666 7.97333 8.08 8.08 8.24C7.86667 8.24 7.68 8.21333 7.52 8.16C7.30667 8.10667 7.06667 8.05333 6.8 8C6.53333 7.94666 6.21333 7.86666 5.84 7.76C5.09333 7.49333 4.48 7.33333 4 7.28C3.57333 7.17333 3.30667 7.12 3.2 7.12C2.93333 7.12 2.74667 6.98666 2.64 6.72C2.64 6.66667 2.61333 6.48 2.56 6.16C2.50667 5.78666 2.42667 5.36 2.32 4.88C2.26667 4.4 2.16 3.92 2 3.44C1.89333 2.96 1.76 2.58666 1.6 2.32L2.72 0.239996C3.62667 0.239996 4.64 0.266664 5.76 0.32C6.88 0.373332 8.13333 0.453331 9.52 0.559997C11.6533 0.719998 13.44 0.853331 14.88 0.959996C16.32 1.06666 17.4933 1.09333 18.4 1.04C18.08 2.58666 18.8267 2.93333 20.64 2.08C21.12 1.86666 21.6267 1.70666 22.16 1.6C22.7467 1.44 23.3067 1.33333 23.84 1.28C24.4267 1.22666 24.9333 1.2 25.36 1.2C25.84 1.2 26.1867 1.22666 26.4 1.28C27.04 1.76 28.1867 2.02666 29.84 2.08C30.6933 2.13333 31.44 2.24 32.08 2.4C32.7733 2.56 33.4133 2.85333 34 3.28C33.8933 3.6 33.8133 4 33.76 4.48C33.7067 4.96 33.6533 5.41333 33.6 5.84C33.6 6.26666 33.6 6.64 33.6 6.96C33.6 7.28 33.6 7.46666 33.6 7.52C33.8133 7.84 34.16 8.13333 34.64 8.4L34.48 8.72L34.32 8.64C34.32 9.54667 34.32 10.1067 34.32 10.32C34.3733 10.5333 34.16 10.64 33.68 10.64L33.6 10.8L29.28 19.04C27.0933 22.5067 25.3333 25.3067 24 27.44C22.72 29.5733 21.7067 31.3067 20.96 32.64C20.2133 33.92 19.6533 34.96 19.28 35.76C18.9067 36.5067 18.5333 37.2533 18.16 38C17.84 38.6933 17.44 39.2533 16.96 39.68C16.5333 40.1067 16.1067 40.4533 15.68 40.72C15.3067 40.9333 14.96 41.0933 14.64 41.2C14.3733 41.3067 14.24 41.3867 14.24 41.44C13.4933 41.76 13.0667 42.16 12.96 42.64C12.9067 43.0667 13.04 43.4667 13.36 43.84C13.68 44.16 14.16 44.4 14.8 44.56C15.4933 44.6667 16.24 44.56 17.04 44.24C17.36 44.24 17.6267 44.1867 17.84 44.08C18.0533 43.9733 18.2667 43.84 18.48 43.68C18.6933 43.52 18.9333 43.36 19.2 43.2C19.52 42.9867 19.9467 42.8 20.48 42.64C21.6 42.3733 22.2933 42.32 22.56 42.48C22.8267 42.5867 23.1733 42.6667 23.6 42.72C24.0267 42.72 24.6133 42.6933 25.36 42.64C27.28 42.5867 28.32 42.5867 28.48 42.64C28.5867 42.7467 28.7467 43.0133 28.96 43.44C29.5467 43.3867 30.2133 43.28 30.96 43.12C31.76 42.9067 32.6667 42.6667 33.68 42.4C33.9467 42.2933 34.1867 42.2133 34.4 42.16C34.6133 42.1067 34.8267 42.0533 35.04 42L37.12 44.4L37.2 46.24L35.92 47.52C35.0133 47.6267 34.2133 47.8667 33.52 48.24C32.3467 48.72 31.36 48.7467 30.56 48.32C29.92 48.16 29.36 48.0533 28.88 48C28.4533 47.9467 28.1067 47.9733 27.84 48.08C27.68 48.08 27.28 48.1067 26.64 48.16C26.0533 48.16 25.3867 48.16 24.64 48.16C23.8933 48.16 23.1467 48.1867 22.4 48.24C21.7067 48.24 21.1733 48.24 20.8 48.24C20.32 48.3467 20.0267 48.3733 19.92 48.32C19.8133 48.2667 19.7067 48.1867 19.6 48.08C19.5467 47.9733 19.4133 47.8667 19.2 47.76C18.9867 47.6 18.56 47.4667 17.92 47.36C17.2267 47.2533 16.3467 47.28 15.28 47.44C14.2667 47.5467 13.2 47.7333 12.08 48C10.96 48.2667 9.84 48.6133 8.72 49.04C7.65333 49.4667 6.77333 49.92 6.08 50.4L5.28 50.08C4.69333 50.0267 4.37333 50.1067 4.32 50.32C4.16 50.32 4.02667 50.3467 3.92 50.4C3.86667 50.4 3.78667 50.4 3.68 50.4H3.44C2.8 50.08 2.42667 49.8667 2.32 49.76C2.21333 49.6533 2.18667 49.5733 2.24 49.52L0.88 49.36L0.16 45.36Z" fill="#AB0000"/>
<path d="M46.6386 62.192V58.736L47.2786 48.432V42.352L48.3666 41.2C48.4946 40.4747 48.4946 39.28 48.3666 37.616C48.2813 35.8667 47.9186 34.992 47.2786 34.992C47.2786 34.096 47.0866 33.3707 46.7026 32.816C46.3186 32.2187 46.1266 31.6853 46.1266 31.216C46.4253 30.9173 46.66 30.576 46.8306 30.192C47.044 29.8507 47.2146 29.424 47.3426 28.912C47.5133 28.3573 47.5986 27.7173 47.5986 26.992C47.5986 26.9067 47.4706 26.9493 47.2146 27.12C47.1293 27.1627 47.0226 27.248 46.8946 27.376L46.3826 26.096C46.596 25.5413 46.8093 24.88 47.0226 24.112C47.236 23.344 47.4066 22.6187 47.5346 21.936L49.9666 21.296C50.7346 21.5093 51.6306 21.7653 52.6546 22.064C53.9346 22.4053 54.98 22.6827 55.7906 22.896C56.644 23.0667 57.284 23.1093 57.7106 23.024V25.776L62.1906 23.472L63.9826 23.664C64.6226 24.176 65.284 24.5813 65.9666 24.88C66.692 25.136 67.2466 25.2853 67.6306 25.328C68.0146 25.3707 68.3773 25.4133 68.7186 25.456C69.1026 25.4987 69.4226 25.5413 69.6786 25.584C70.1053 25.584 70.6386 25.648 71.2786 25.776C71.9186 25.904 72.4733 26.0107 72.9426 26.096L73.7106 27.248C73.9666 27.888 74.18 28.464 74.3506 28.976C74.564 29.488 74.756 29.9573 74.9266 30.384C75.0973 30.8107 75.268 31.216 75.4386 31.6C75.652 31.984 75.908 32.368 76.2066 32.752C76.164 33.008 76.1213 33.3493 76.0786 33.776C76.036 34.16 76.0573 34.6507 76.1426 35.248C76.1853 36.2293 76.5053 36.8053 77.1026 36.976L76.9106 38.256C76.3133 39.1093 75.8226 39.8987 75.4386 40.624C75.0973 41.3067 74.82 41.904 74.6066 42.416C74.4786 42.7147 74.3506 43.0133 74.2226 43.312C74.1373 43.568 74.052 43.824 73.9666 44.08C73.4546 44.2507 72.6653 44.528 71.5986 44.912C70.532 45.2533 69.3586 45.68 68.0786 46.192C65.604 47.1307 64.1533 47.728 63.7266 47.984C63.3853 48.24 63.0653 48.5813 62.7666 49.008L62.1906 49.776C62.0626 49.8187 61.8706 49.84 61.6146 49.84C61.4013 49.8827 61.188 49.904 60.9746 49.904C60.7613 49.904 60.484 49.9253 60.1426 49.968C59.46 50.0107 58.9266 50.0533 58.5426 50.096C58.1586 50.1387 57.7106 50.1387 57.1986 50.096L56.1746 52.848V54.768L56.2386 57.392L56.5586 58.032C56.644 58.2453 56.7293 58.48 56.8146 58.736C56.9426 58.992 57.0706 59.2267 57.1986 59.44L55.9186 61.872C55.7906 61.9147 55.556 61.9787 55.2146 62.064C55.0013 62.1067 54.724 62.1067 54.3826 62.064C54.084 62.064 53.7426 62 53.3586 61.872C52.932 61.7867 52.548 61.7867 52.2066 61.872C51.8653 62 51.5453 62.1493 51.2466 62.32C50.9906 62.5333 50.7346 62.7253 50.4786 62.896C50.2653 63.0667 50.0733 63.152 49.9026 63.152C49.6893 63.152 49.4546 63.1733 49.1986 63.216C48.9426 63.2587 48.644 63.3013 48.3026 63.344L46.6386 62.192ZM66.4786 41.392L67.6306 37.68C67.6306 36.3147 67.652 35.2053 67.6946 34.352C67.7373 33.4987 67.716 32.56 67.6306 31.536C67.46 31.3653 67.2466 31.152 66.9906 30.896C66.7773 30.5973 66.5426 30.32 66.2866 30.064C66.0733 29.808 65.86 29.5947 65.6466 29.424C65.476 29.2533 65.3693 29.168 65.3266 29.168C65.2413 29.168 65.0493 29.1253 64.7506 29.04C64.4946 28.9547 64.196 28.8693 63.8546 28.784C63.5133 28.6987 63.172 28.6347 62.8306 28.592C62.4893 28.5067 62.2333 28.4853 62.0626 28.528C62.02 28.528 61.9346 28.6133 61.8066 28.784C61.7213 28.912 61.5933 29.04 61.4226 29.168C61.2946 29.296 61.1026 29.36 60.8466 29.36C60.5906 29.3173 60.292 29.1253 59.9506 28.784C59.4813 28.3573 59.1186 28.1867 58.8626 28.272C58.6066 28.3573 58.3933 28.592 58.2226 28.976C58.052 29.3173 57.9026 29.7653 57.7746 30.32C57.6466 30.832 57.4973 31.3013 57.3266 31.728C57.156 31.9413 57.028 32.0693 56.9426 32.112C56.8573 32.112 56.8146 32.3253 56.8146 32.752C56.8146 32.7947 56.9213 32.9867 57.1346 33.328C57.348 33.6693 57.5613 34.0747 57.7746 34.544L56.8146 35.376L56.5586 44.784L58.0946 45.296H61.8706L66.4786 41.392ZM111.741 30C111.869 30.7253 111.933 31.3653 111.933 31.92C111.933 32.432 111.911 32.944 111.869 33.456C111.869 33.9253 111.89 34.3947 111.933 34.864C112.018 35.2907 112.189 35.76 112.445 36.272C112.359 36.4427 112.146 36.784 111.805 37.296C111.506 37.7653 111.293 38.256 111.165 38.768C111.079 39.2373 111.015 39.6 110.973 39.856C110.93 40.112 110.887 40.2827 110.845 40.368C110.973 40.4533 111.079 40.624 111.165 40.88C111.207 41.0933 111.165 41.3707 111.037 41.712C110.909 42.0107 110.653 42.4373 110.269 42.992C109.501 44.016 109.074 44.8907 108.989 45.616C108.903 46.2987 108.733 46.832 108.477 47.216C108.391 47.3013 108.114 47.4293 107.645 47.6C107.218 47.7707 106.706 47.984 106.109 48.24C105.511 48.4533 104.914 48.7093 104.317 49.008C103.719 49.3067 103.25 49.6053 102.909 49.904C102.183 50.032 101.543 50.2027 100.989 50.416C100.434 50.6293 99.7513 50.7787 98.9406 50.864C98.1726 51.0347 97.3833 51.248 96.5726 51.504C95.762 51.7173 95.314 51.824 95.2286 51.824C93.2233 51.824 92.0286 51.888 91.6446 52.016C91.3033 52.144 90.898 52.208 90.4286 52.208L84.6046 50.096L81.9166 46.192C81.9166 45.168 81.874 44.3147 81.7886 43.632C81.746 42.9067 81.682 42.288 81.5966 41.776C81.5113 41.2213 81.4473 40.7093 81.4046 40.24C81.362 39.7707 81.362 39.2373 81.4046 38.64C81.5326 38.512 81.7246 38.2133 81.9806 37.744C82.2366 37.232 82.4926 36.656 82.7486 36.016C83.0473 35.376 83.3246 34.7147 83.5806 34.032C83.8793 33.3493 84.0926 32.7733 84.2206 32.304C84.562 31.3227 84.818 30.4693 84.9886 29.744C85.1593 28.976 85.2873 28.2933 85.3726 27.696C85.714 27.4827 85.9913 27.248 86.2046 26.992C86.418 26.736 86.6313 26.5227 86.8446 26.352C88.594 25.328 90.1086 24.496 91.3886 23.856C92.6686 23.1733 93.8633 22.7467 94.9726 22.576L96.8926 22.448C97.106 22.4907 97.298 22.5333 97.4686 22.576C97.6393 22.6187 97.81 22.6613 97.9806 22.704C98.2366 22.7893 98.4713 22.8533 98.6846 22.896C98.898 22.896 99.026 22.896 99.0686 22.896L100.349 24.88C100.349 25.264 100.263 25.584 100.093 25.84C99.922 26.0533 100.093 26.2027 100.605 26.288C101.159 26.416 101.458 26.5013 101.501 26.544V26.608C102.183 26.608 102.887 26.4587 103.613 26.16C104.338 25.8187 105.063 25.648 105.789 25.648C105.959 25.648 106.258 25.7333 106.685 25.904C107.111 26.032 107.559 26.2027 108.029 26.416C108.498 26.6293 108.925 26.8427 109.309 27.056C109.735 27.2267 110.034 27.3547 110.205 27.44C110.119 28.08 110.141 28.528 110.269 28.784C110.397 29.04 110.567 29.232 110.781 29.36C110.994 29.4453 111.186 29.5307 111.357 29.616C111.57 29.6587 111.698 29.7867 111.741 30ZM100.285 46C100.925 45.5733 101.543 44.208 102.141 41.904C102.482 40.6667 102.759 39.7493 102.973 39.152C103.229 38.512 103.357 37.9147 103.357 37.36C103.357 36.4213 103.037 35.312 102.397 34.032C102.055 33.3493 101.799 32.7733 101.629 32.304C101.458 31.8347 101.33 31.3653 101.245 30.896C100.903 30.7253 100.711 30.4693 100.669 30.128C100.669 29.744 100.498 29.36 100.157 28.976C99.73 28.6347 99.474 28.5067 99.3886 28.592C99.3033 28.6773 99.218 28.72 99.1326 28.72H98.5566C98.2153 28.72 97.746 28.784 97.1486 28.912C96.594 29.04 96.146 29.3387 95.8046 29.808C95.2926 30.3627 94.8446 30.8107 94.4606 31.152C94.1193 31.4507 93.9273 31.6427 93.8846 31.728C93.458 32.5387 93.074 33.2427 92.7326 33.84C92.3913 34.3947 92.114 34.8427 91.9006 35.184L91.3246 36.528C91.0686 37.168 90.962 38.0213 91.0046 39.088C91.09 39.2587 91.1753 39.6427 91.2606 40.24C91.346 40.7947 91.09 41.392 90.4926 42.032C90.3646 42.16 90.2366 42.416 90.1086 42.8C89.9806 43.1413 89.8953 43.5467 89.8526 44.016C89.81 44.4853 89.8526 44.9547 89.9806 45.424C90.1513 45.8933 90.4713 46.2987 90.9406 46.64C91.538 47.0667 92.1566 47.4933 92.7966 47.92C93.4366 48.304 93.842 48.496 94.0126 48.496H94.7166C94.9726 48.496 95.2073 48.56 95.4206 48.688L100.285 46ZM143.173 23.92V26.864H141.509L139.077 28.784C136.986 29.0827 135.279 29.5093 133.957 30.064C132.634 30.576 132.015 31.3013 132.101 32.24C132.015 32.4533 131.973 32.7093 131.973 33.008C131.973 33.264 132.122 33.392 132.421 33.392L131.141 39.792L130.565 40.496V47.6L130.181 51.184L128.901 52.464L121.605 51.952L120.005 49.776L120.453 48.624L120.197 45.104L120.965 38.64L121.605 33.904C121.605 33.776 121.626 33.6693 121.669 33.584C121.669 33.4987 121.669 33.392 121.669 33.264C121.711 33.136 121.733 33.0293 121.733 32.944C121.946 32.7733 122.074 32.3893 122.117 31.792C122.202 31.1947 122.223 30.8107 122.181 30.64C122.181 30.3413 122.159 30.064 122.117 29.808C122.117 29.552 122.031 28.9973 121.861 28.144C121.818 27.888 121.669 27.5893 121.413 27.248C121.199 26.864 120.965 26.5227 120.709 26.224L121.541 24.24H122.757L129.349 23.024L130.949 23.792C130.821 24.5173 130.799 25.136 130.885 25.648C131.013 26.1173 131.183 26.48 131.397 26.736C131.653 26.992 131.93 27.1627 132.229 27.248C132.527 27.2907 132.783 27.248 132.997 27.12L134.149 26.48C134.362 26.3947 134.426 26.16 134.341 25.776C134.298 25.392 134.319 24.9013 134.405 24.304L142.341 22.896L143.173 23.92ZM147.891 29.232C147.72 28.7627 147.592 28.144 147.507 27.376C147.422 26.5653 147.336 25.8827 147.251 25.328L148.467 23.024C149.235 22.896 149.768 22.8533 150.067 22.896C150.408 22.9387 150.664 23.0027 150.835 23.088C151.091 23.0453 151.454 23.0027 151.923 22.96C152.435 22.8747 153.203 22.7467 154.227 22.576C154.312 21.8507 154.462 21.04 154.675 20.144C154.888 19.248 155.038 18.2453 155.123 17.136L154.227 16.24L154.163 15.28L154.867 13.616H162.547L165.427 13.744C165.726 14.0853 165.854 14.4907 165.811 14.96C165.768 15.3867 165.683 15.792 165.555 16.176C165.427 16.56 165.299 16.88 165.171 17.136C165.086 17.3493 165.107 17.4133 165.235 17.328V21.296C164.979 21.5093 164.787 21.7653 164.659 22.064C164.531 22.32 164.424 22.6187 164.339 22.96L164.467 23.088L168.179 22.96C168.307 23.0027 168.435 23.0453 168.563 23.088C168.691 23.1307 168.84 23.1733 169.011 23.216C169.523 23.344 170.184 23.408 170.995 23.408L171.571 24.048L170.867 27.12C170.611 27.12 170.27 27.1627 169.843 27.248C169.416 27.2907 168.968 27.3547 168.499 27.44C168.072 27.4827 167.667 27.5253 167.283 27.568C166.942 27.6107 166.707 27.632 166.579 27.632L163.891 28.4C163.72 28.8693 163.592 29.2747 163.507 29.616C163.464 29.9147 163.443 30.2133 163.443 30.512C163.443 30.768 163.443 31.0667 163.443 31.408C163.486 31.7067 163.507 32.0907 163.507 32.56L163.059 40.688C162.931 41.4133 162.888 42.0747 162.931 42.672C163.016 43.2693 163.123 43.7813 163.251 44.208C163.336 44.4213 163.422 44.6347 163.507 44.848C163.592 45.0613 163.678 45.2747 163.763 45.488L164.339 47.152L164.595 47.472L170.803 45.552L173.171 44.976L174.579 46.256L173.043 48.304L171.571 49.072L170.291 49.328L162.931 52.592C162.718 52.592 162.547 52.5707 162.419 52.528C162.206 52.528 161.95 52.528 161.651 52.528C161.395 52.4853 161.096 52.4427 160.755 52.4C159.219 52.272 158.067 52.3147 157.299 52.528C157.299 51.3333 156.83 50.5227 155.891 50.096C155.422 49.7973 154.995 49.5413 154.611 49.328C154.27 49.1147 153.95 48.944 153.651 48.816C153.651 48.0907 153.651 47.6 153.651 47.344C153.694 47.088 153.651 46.7467 153.523 46.32C153.438 46.1067 153.416 45.6373 153.459 44.912C153.502 44.144 153.544 43.184 153.587 42.032C153.672 40.8373 153.63 39.8773 153.459 39.152C153.288 38.384 153.032 38 152.691 38C152.734 37.4453 152.755 36.8907 152.755 36.336C152.798 35.7813 152.84 35.2907 152.883 34.864C152.926 34.6507 152.947 34.416 152.947 34.16C152.947 33.904 152.947 33.6693 152.947 33.456C153.032 33.2853 153.096 33.1573 153.139 33.072C153.182 32.944 153.224 32.8587 153.267 32.816C153.31 32.7307 153.502 32.624 153.843 32.496C154.227 32.3253 154.568 31.8773 154.867 31.152C155.848 30.4693 156.275 29.8507 156.147 29.296C156.019 28.7413 155.272 28.3573 153.907 28.144C153.608 28.1867 153.352 28.272 153.139 28.4C152.968 28.4853 152.883 28.72 152.883 29.104L149.043 29.936L147.891 29.232ZM210.716 23.856L215.644 24.816L214.62 27.312V27.504C214.662 27.888 214.428 29.168 213.916 31.344C213.873 31.472 213.681 31.664 213.34 31.92C213.041 32.176 212.678 32.4747 212.252 32.816C211.868 33.1573 211.484 33.52 211.1 33.904C210.716 34.2453 210.46 34.5867 210.332 34.928L201.052 49.136L199.132 51.056C199.004 51.0987 198.876 51.1627 198.748 51.248C198.662 51.2907 198.577 51.312 198.492 51.312L199.068 52.144L196.06 56.688L192.156 61.808L191.196 63.152L183.644 62.768L182.492 59.504L184.668 58.928L186.204 57.328L187.356 56.496V54.896C187.526 54.8107 187.676 54.704 187.804 54.576C187.974 54.4907 188.145 54.384 188.316 54.256C188.572 54.0427 188.849 53.7867 189.148 53.488C189.446 53.1893 189.724 52.8267 189.98 52.4C190.918 50.736 190.94 49.904 190.044 49.904C190.385 49.648 190.62 49.456 190.748 49.328C191.174 48.9013 191.452 48.3467 191.58 47.664C191.75 46.3413 191.665 45.488 191.324 45.104C191.11 45.0613 190.641 44.6133 189.916 43.76C189.532 43.3333 189.212 42.9707 188.956 42.672C188.7 42.3733 188.486 42.1813 188.316 42.096C188.06 41.3707 187.676 40.56 187.164 39.664C186.694 38.768 186.161 37.872 185.564 36.976C185.009 36.0373 184.433 35.12 183.836 34.224C183.238 33.328 182.684 32.496 182.172 31.728C180.636 29.424 179.292 27.8667 178.14 27.056L177.692 25.328C178.204 24.7733 178.844 24.4533 179.612 24.368C180.465 24.2827 181.062 23.984 181.404 23.472L185.052 22.32C185.82 22.7467 186.524 23.2373 187.164 23.792C188.06 24.6027 188.977 25.1573 189.916 25.456C189.916 26.0107 190.086 26.5013 190.428 26.928C190.769 27.3547 191.153 27.76 191.58 28.144C192.006 28.4853 192.412 28.8053 192.796 29.104C193.222 29.4027 193.521 29.7013 193.692 30C193.692 30.0427 193.713 30.192 193.756 30.448C193.841 30.6613 193.884 30.896 193.884 31.152C193.926 31.408 193.926 31.6427 193.884 31.856C193.884 32.0267 193.82 32.112 193.692 32.112C193.478 32.112 193.5 32.2187 193.756 32.432C194.012 32.6453 194.502 32.9227 195.228 33.264C195.228 33.392 195.313 33.6267 195.484 33.968C195.697 34.3093 195.953 34.6933 196.252 35.12C196.55 35.5467 196.849 35.9947 197.148 36.464C197.446 36.8907 197.702 37.296 197.916 37.68C198.385 38.576 198.705 39.4293 198.876 40.24C199.046 41.008 199.196 41.4347 199.324 41.52C199.409 41.52 199.58 41.4773 199.836 41.392C200.092 41.264 200.369 41.136 200.668 41.008C200.966 40.8373 201.222 40.6453 201.436 40.432C201.649 40.176 201.756 39.92 201.756 39.664C201.756 39.408 201.67 39.1947 201.5 39.024L201.052 38.448C200.924 38.2347 200.817 38.0427 200.732 37.872C200.646 37.7013 200.646 37.5307 200.732 37.36C201.201 36.976 201.542 36.656 201.756 36.4C201.969 36.1013 202.246 35.7173 202.588 35.248C202.673 35.0347 202.844 34.8 203.1 34.544C203.398 34.2453 203.697 33.968 203.996 33.712C204.337 33.456 204.636 33.2427 204.892 33.072C205.148 32.8587 205.276 32.7307 205.276 32.688C205.617 32.0053 205.894 31.344 206.108 30.704C206.321 30.0213 206.598 29.0613 206.94 27.824C206.982 27.6107 207.089 27.3973 207.26 27.184C207.473 26.9707 207.686 26.7787 207.9 26.608C208.156 26.3947 208.369 26.224 208.54 26.096C208.753 25.9253 208.881 25.776 208.924 25.648C208.966 25.5627 208.988 25.52 208.988 25.52C208.988 25.4773 209.009 25.4133 209.052 25.328L210.716 23.856Z" fill="white"/>
</svg>
